<svg version="1.1" xmlns="http://www.w3.org/2000/svg" xmlns:xlink="http://www.w3.org/1999/xlink" width="1220" height="476"><defs/><g><text fill="#eeeeee" stroke="none" font-family="Arial" font-size="24px" font-style="normal" font-weight="normal" text-decoration="none" x="0" y="0">UNREGISTERED</text><text fill="#eeeeee" stroke="none" font-family="Arial" font-size="24px" font-style="normal" font-weight="normal" text-decoration="none" x="0" y="30">UNREGISTERED</text><text fill="#eeeeee" stroke="none" font-family="Arial" font-size="24px" font-style="normal" font-weight="normal" text-decoration="none" x="0" y="60">UNREGISTERED</text><text fill="#eeeeee" stroke="none" font-family="Arial" font-size="24px" font-style="normal" font-weight="normal" text-decoration="none" x="0" y="90">UNREGISTERED</text><text fill="#eeeeee" stroke="none" font-family="Arial" font-size="24px" font-style="normal" font-weight="normal" text-decoration="none" x="0" y="120">UNREGISTERED</text><text fill="#eeeeee" stroke="none" font-family="Arial" font-size="24px" font-style="normal" font-weight="normal" text-decoration="none" x="0" y="150">UNREGISTERED</text><text fill="#eeeeee" stroke="none" font-family="Arial" font-size="24px" font-style="normal" font-weight="normal" text-decoration="none" x="0" y="180">UNREGISTERED</text><text fill="#eeeeee" stroke="none" font-family="Arial" font-size="24px" font-style="normal" font-weight="normal" text-decoration="none" x="0" y="210">UNREGISTERED</text><text fill="#eeeeee" stroke="none" font-family="Arial" font-size="24px" font-style="normal" font-weight="normal" text-decoration="none" x="0" y="240">UNREGISTERED</text><text fill="#eeeeee" stroke="none" font-family="Arial" font-size="24px" font-style="normal" font-weight="normal" text-decoration="none" x="0" y="270">UNREGISTERED</text><text fill="#eeeeee" stroke="none" font-family="Arial" font-size="24px" font-style="normal" font-weight="normal" text-decoration="none" x="0" y="300">UNREGISTERED</text><text fill="#eeeeee" stroke="none" font-family="Arial" font-size="24px" font-style="normal" font-weight="normal" text-decoration="none" x="0" y="330">UNREGISTERED</text><text fill="#eeeeee" stroke="none" font-family="Arial" font-size="24px" font-style="normal" font-weight="normal" text-decoration="none" x="0" y="360">UNREGISTERED</text><text fill="#eeeeee" stroke="none" font-family="Arial" font-size="24px" font-style="normal" font-weight="normal" text-decoration="none" x="0" y="390">UNREGISTERED</text><text fill="#eeeeee" stroke="none" font-family="Arial" font-size="24px" font-style="normal" font-weight="normal" text-decoration="none" x="0" y="420">UNREGISTERED</text><text fill="#eeeeee" stroke="none" font-family="Arial" font-size="24px" font-style="normal" font-weight="normal" text-decoration="none" x="0" y="450">UNREGISTERED</text><text fill="#eeeeee" stroke="none" font-family="Arial" font-size="24px" font-style="normal" font-weight="normal" text-decoration="none" x="200" y="0">UNREGISTERED</text><text fill="#eeeeee" stroke="none" font-family="Arial" font-size="24px" font-style="normal" font-weight="normal" text-decoration="none" x="200" y="30">UNREGISTERED</text><text fill="#eeeeee" stroke="none" font-family="Arial" font-size="24px" font-style="normal" font-weight="normal" text-decoration="none" x="200" y="60">UNREGISTERED</text><text fill="#eeeeee" stroke="none" font-family="Arial" font-size="24px" font-style="normal" font-weight="normal" text-decoration="none" x="200" y="90">UNREGISTERED</text><text fill="#eeeeee" stroke="none" font-family="Arial" font-size="24px" font-style="normal" font-weight="normal" text-decoration="none" x="200" y="120">UNREGISTERED</text><text fill="#eeeeee" stroke="none" font-family="Arial" font-size="24px" font-style="normal" font-weight="normal" text-decoration="none" x="200" y="150">UNREGISTERED</text><text fill="#eeeeee" stroke="none" font-family="Arial" font-size="24px" font-style="normal" font-weight="normal" text-decoration="none" x="200" y="180">UNREGISTERED</text><text fill="#eeeeee" stroke="none" font-family="Arial" font-size="24px" font-style="normal" font-weight="normal" text-decoration="none" x="200" y="210">UNREGISTERED</text><text fill="#eeeeee" stroke="none" font-family="Arial" font-size="24px" font-style="normal" font-weight="normal" text-decoration="none" x="200" y="240">UNREGISTERED</text><text fill="#eeeeee" stroke="none" font-family="Arial" font-size="24px" font-style="normal" font-weight="normal" text-decoration="none" x="200" y="270">UNREGISTERED</text><text fill="#eeeeee" stroke="none" font-family="Arial" font-size="24px" font-style="normal" font-weight="normal" text-decoration="none" x="200" y="300">UNREGISTERED</text><text fill="#eeeeee" stroke="none" font-family="Arial" font-size="24px" font-style="normal" font-weight="normal" text-decoration="none" x="200" y="330">UNREGISTERED</text><text fill="#eeeeee" stroke="none" font-family="Arial" font-size="24px" font-style="normal" font-weight="normal" text-decoration="none" x="200" y="360">UNREGISTERED</text><text fill="#eeeeee" stroke="none" font-family="Arial" font-size="24px" font-style="normal" font-weight="normal" text-decoration="none" x="200" y="390">UNREGISTERED</text><text fill="#eeeeee" stroke="none" font-family="Arial" font-size="24px" font-style="normal" font-weight="normal" text-decoration="none" x="200" y="420">UNREGISTERED</text><text fill="#eeeeee" stroke="none" font-family="Arial" font-size="24px" font-style="normal" font-weight="normal" text-decoration="none" x="200" y="450">UNREGISTERED</text><text fill="#eeeeee" stroke="none" font-family="Arial" font-size="24px" font-style="normal" font-weight="normal" text-decoration="none" x="400" y="0">UNREGISTERED</text><text fill="#eeeeee" stroke="none" font-family="Arial" font-size="24px" font-style="normal" font-weight="normal" text-decoration="none" x="400" y="30">UNREGISTERED</text><text fill="#eeeeee" stroke="none" font-family="Arial" font-size="24px" font-style="normal" font-weight="normal" text-decoration="none" x="400" y="60">UNREGISTERED</text><text fill="#eeeeee" stroke="none" font-family="Arial" font-size="24px" font-style="normal" font-weight="normal" text-decoration="none" x="400" y="90">UNREGISTERED</text><text fill="#eeeeee" stroke="none" font-family="Arial" font-size="24px" font-style="normal" font-weight="normal" text-decoration="none" x="400" y="120">UNREGISTERED</text><text fill="#eeeeee" stroke="none" font-family="Arial" font-size="24px" font-style="normal" font-weight="normal" text-decoration="none" x="400" y="150">UNREGISTERED</text><text fill="#eeeeee" stroke="none" font-family="Arial" font-size="24px" font-style="normal" font-weight="normal" text-decoration="none" x="400" y="180">UNREGISTERED</text><text fill="#eeeeee" stroke="none" font-family="Arial" font-size="24px" font-style="normal" font-weight="normal" text-decoration="none" x="400" y="210">UNREGISTERED</text><text fill="#eeeeee" stroke="none" font-family="Arial" font-size="24px" font-style="normal" font-weight="normal" text-decoration="none" x="400" y="240">UNREGISTERED</text><text fill="#eeeeee" stroke="none" font-family="Arial" font-size="24px" font-style="normal" font-weight="normal" text-decoration="none" x="400" y="270">UNREGISTERED</text><text fill="#eeeeee" stroke="none" font-family="Arial" font-size="24px" font-style="normal" font-weight="normal" text-decoration="none" x="400" y="300">UNREGISTERED</text><text fill="#eeeeee" stroke="none" font-family="Arial" font-size="24px" font-style="normal" font-weight="normal" text-decoration="none" x="400" y="330">UNREGISTERED</text><text fill="#eeeeee" stroke="none" font-family="Arial" font-size="24px" font-style="normal" font-weight="normal" text-decoration="none" x="400" y="360">UNREGISTERED</text><text fill="#eeeeee" stroke="none" font-family="Arial" font-size="24px" font-style="normal" font-weight="normal" text-decoration="none" x="400" y="390">UNREGISTERED</text><text fill="#eeeeee" stroke="none" font-family="Arial" font-size="24px" font-style="normal" font-weight="normal" text-decoration="none" x="400" y="420">UNREGISTERED</text><text fill="#eeeeee" stroke="none" font-family="Arial" font-size="24px" font-style="normal" font-weight="normal" text-decoration="none" x="400" y="450">UNREGISTERED</text><text fill="#eeeeee" stroke="none" font-family="Arial" font-size="24px" font-style="normal" font-weight="normal" text-decoration="none" x="600" y="0">UNREGISTERED</text><text fill="#eeeeee" stroke="none" font-family="Arial" font-size="24px" font-style="normal" font-weight="normal" text-decoration="none" x="600" y="30">UNREGISTERED</text><text fill="#eeeeee" stroke="none" font-family="Arial" font-size="24px" font-style="normal" font-weight="normal" text-decoration="none" x="600" y="60">UNREGISTERED</text><text fill="#eeeeee" stroke="none" font-family="Arial" font-size="24px" font-style="normal" font-weight="normal" text-decoration="none" x="600" y="90">UNREGISTERED</text><text fill="#eeeeee" stroke="none" font-family="Arial" font-size="24px" font-style="normal" font-weight="normal" text-decoration="none" x="600" y="120">UNREGISTERED</text><text fill="#eeeeee" stroke="none" font-family="Arial" font-size="24px" font-style="normal" font-weight="normal" text-decoration="none" x="600" y="150">UNREGISTERED</text><text fill="#eeeeee" stroke="none" font-family="Arial" font-size="24px" font-style="normal" font-weight="normal" text-decoration="none" x="600" y="180">UNREGISTERED</text><text fill="#eeeeee" stroke="none" font-family="Arial" font-size="24px" font-style="normal" font-weight="normal" text-decoration="none" x="600" y="210">UNREGISTERED</text><text fill="#eeeeee" stroke="none" font-family="Arial" font-size="24px" font-style="normal" font-weight="normal" text-decoration="none" x="600" y="240">UNREGISTERED</text><text fill="#eeeeee" stroke="none" font-family="Arial" font-size="24px" font-style="normal" font-weight="normal" text-decoration="none" x="600" y="270">UNREGISTERED</text><text fill="#eeeeee" stroke="none" font-family="Arial" font-size="24px" font-style="normal" font-weight="normal" text-decoration="none" x="600" y="300">UNREGISTERED</text><text fill="#eeeeee" stroke="none" font-family="Arial" font-size="24px" font-style="normal" font-weight="normal" text-decoration="none" x="600" y="330">UNREGISTERED</text><text fill="#eeeeee" stroke="none" font-family="Arial" font-size="24px" font-style="normal" font-weight="normal" text-decoration="none" x="600" y="360">UNREGISTERED</text><text fill="#eeeeee" stroke="none" font-family="Arial" font-size="24px" font-style="normal" font-weight="normal" text-decoration="none" x="600" y="390">UNREGISTERED</text><text fill="#eeeeee" stroke="none" font-family="Arial" font-size="24px" font-style="normal" font-weight="normal" text-decoration="none" x="600" y="420">UNREGISTERED</text><text fill="#eeeeee" stroke="none" font-family="Arial" font-size="24px" font-style="normal" font-weight="normal" text-decoration="none" x="600" y="450">UNREGISTERED</text><text fill="#eeeeee" stroke="none" font-family="Arial" font-size="24px" font-style="normal" font-weight="normal" text-decoration="none" x="800" y="0">UNREGISTERED</text><text fill="#eeeeee" stroke="none" font-family="Arial" font-size="24px" font-style="normal" font-weight="normal" text-decoration="none" x="800" y="30">UNREGISTERED</text><text fill="#eeeeee" stroke="none" font-family="Arial" font-size="24px" font-style="normal" font-weight="normal" text-decoration="none" x="800" y="60">UNREGISTERED</text><text fill="#eeeeee" stroke="none" font-family="Arial" font-size="24px" font-style="normal" font-weight="normal" text-decoration="none" x="800" y="90">UNREGISTERED</text><text fill="#eeeeee" stroke="none" font-family="Arial" font-size="24px" font-style="normal" font-weight="normal" text-decoration="none" x="800" y="120">UNREGISTERED</text><text fill="#eeeeee" stroke="none" font-family="Arial" font-size="24px" font-style="normal" font-weight="normal" text-decoration="none" x="800" y="150">UNREGISTERED</text><text fill="#eeeeee" stroke="none" font-family="Arial" font-size="24px" font-style="normal" font-weight="normal" text-decoration="none" x="800" y="180">UNREGISTERED</text><text fill="#eeeeee" stroke="none" font-family="Arial" font-size="24px" font-style="normal" font-weight="normal" text-decoration="none" x="800" y="210">UNREGISTERED</text><text fill="#eeeeee" stroke="none" font-family="Arial" font-size="24px" font-style="normal" font-weight="normal" text-decoration="none" x="800" y="240">UNREGISTERED</text><text fill="#eeeeee" stroke="none" font-family="Arial" font-size="24px" font-style="normal" font-weight="normal" text-decoration="none" x="800" y="270">UNREGISTERED</text><text fill="#eeeeee" stroke="none" font-family="Arial" font-size="24px" font-style="normal" font-weight="normal" text-decoration="none" x="800" y="300">UNREGISTERED</text><text fill="#eeeeee" stroke="none" font-family="Arial" font-size="24px" font-style="normal" font-weight="normal" text-decoration="none" x="800" y="330">UNREGISTERED</text><text fill="#eeeeee" stroke="none" font-family="Arial" font-size="24px" font-style="normal" font-weight="normal" text-decoration="none" x="800" y="360">UNREGISTERED</text><text fill="#eeeeee" stroke="none" font-family="Arial" font-size="24px" font-style="normal" font-weight="normal" text-decoration="none" x="800" y="390">UNREGISTERED</text><text fill="#eeeeee" stroke="none" font-family="Arial" font-size="24px" font-style="normal" font-weight="normal" text-decoration="none" x="800" y="420">UNREGISTERED</text><text fill="#eeeeee" stroke="none" font-family="Arial" font-size="24px" font-style="normal" font-weight="normal" text-decoration="none" x="800" y="450">UNREGISTERED</text><text fill="#eeeeee" stroke="none" font-family="Arial" font-size="24px" font-style="normal" font-weight="normal" text-decoration="none" x="1000" y="0">UNREGISTERED</text><text fill="#eeeeee" stroke="none" font-family="Arial" font-size="24px" font-style="normal" font-weight="normal" text-decoration="none" x="1000" y="30">UNREGISTERED</text><text fill="#eeeeee" stroke="none" font-family="Arial" font-size="24px" font-style="normal" font-weight="normal" text-decoration="none" x="1000" y="60">UNREGISTERED</text><text fill="#eeeeee" stroke="none" font-family="Arial" font-size="24px" font-style="normal" font-weight="normal" text-decoration="none" x="1000" y="90">UNREGISTERED</text><text fill="#eeeeee" stroke="none" font-family="Arial" font-size="24px" font-style="normal" font-weight="normal" text-decoration="none" x="1000" y="120">UNREGISTERED</text><text fill="#eeeeee" stroke="none" font-family="Arial" font-size="24px" font-style="normal" font-weight="normal" text-decoration="none" x="1000" y="150">UNREGISTERED</text><text fill="#eeeeee" stroke="none" font-family="Arial" font-size="24px" font-style="normal" font-weight="normal" text-decoration="none" x="1000" y="180">UNREGISTERED</text><text fill="#eeeeee" stroke="none" font-family="Arial" font-size="24px" font-style="normal" font-weight="normal" text-decoration="none" x="1000" y="210">UNREGISTERED</text><text fill="#eeeeee" stroke="none" font-family="Arial" font-size="24px" font-style="normal" font-weight="normal" text-decoration="none" x="1000" y="240">UNREGISTERED</text><text fill="#eeeeee" stroke="none" font-family="Arial" font-size="24px" font-style="normal" font-weight="normal" text-decoration="none" x="1000" y="270">UNREGISTERED</text><text fill="#eeeeee" stroke="none" font-family="Arial" font-size="24px" font-style="normal" font-weight="normal" text-decoration="none" x="1000" y="300">UNREGISTERED</text><text fill="#eeeeee" stroke="none" font-family="Arial" font-size="24px" font-style="normal" font-weight="normal" text-decoration="none" x="1000" y="330">UNREGISTERED</text><text fill="#eeeeee" stroke="none" font-family="Arial" font-size="24px" font-style="normal" font-weight="normal" text-decoration="none" x="1000" y="360">UNREGISTERED</text><text fill="#eeeeee" stroke="none" font-family="Arial" font-size="24px" font-style="normal" font-weight="normal" text-decoration="none" x="1000" y="390">UNREGISTERED</text><text fill="#eeeeee" stroke="none" font-family="Arial" font-size="24px" font-style="normal" font-weight="normal" text-decoration="none" x="1000" y="420">UNREGISTERED</text><text fill="#eeeeee" stroke="none" font-family="Arial" font-size="24px" font-style="normal" font-weight="normal" text-decoration="none" x="1000" y="450">UNREGISTERED</text><text fill="#eeeeee" stroke="none" font-family="Arial" font-size="24px" font-style="normal" font-weight="normal" text-decoration="none" x="1200" y="0">UNREGISTERED</text><text fill="#eeeeee" stroke="none" font-family="Arial" font-size="24px" font-style="normal" font-weight="normal" text-decoration="none" x="1200" y="30">UNREGISTERED</text><text fill="#eeeeee" stroke="none" font-family="Arial" font-size="24px" font-style="normal" font-weight="normal" text-decoration="none" x="1200" y="60">UNREGISTERED</text><text fill="#eeeeee" stroke="none" font-family="Arial" font-size="24px" font-style="normal" font-weight="normal" text-decoration="none" x="1200" y="90">UNREGISTERED</text><text fill="#eeeeee" stroke="none" font-family="Arial" font-size="24px" font-style="normal" font-weight="normal" text-decoration="none" x="1200" y="120">UNREGISTERED</text><text fill="#eeeeee" stroke="none" font-family="Arial" font-size="24px" font-style="normal" font-weight="normal" text-decoration="none" x="1200" y="150">UNREGISTERED</text><text fill="#eeeeee" stroke="none" font-family="Arial" font-size="24px" font-style="normal" font-weight="normal" text-decoration="none" x="1200" y="180">UNREGISTERED</text><text fill="#eeeeee" stroke="none" font-family="Arial" font-size="24px" font-style="normal" font-weight="normal" text-decoration="none" x="1200" y="210">UNREGISTERED</text><text fill="#eeeeee" stroke="none" font-family="Arial" font-size="24px" font-style="normal" font-weight="normal" text-decoration="none" x="1200" y="240">UNREGISTERED</text><text fill="#eeeeee" stroke="none" font-family="Arial" font-size="24px" font-style="normal" font-weight="normal" text-decoration="none" x="1200" y="270">UNREGISTERED</text><text fill="#eeeeee" stroke="none" font-family="Arial" font-size="24px" font-style="normal" font-weight="normal" text-decoration="none" x="1200" y="300">UNREGISTERED</text><text fill="#eeeeee" stroke="none" font-family="Arial" font-size="24px" font-style="normal" font-weight="normal" text-decoration="none" x="1200" y="330">UNREGISTERED</text><text fill="#eeeeee" stroke="none" font-family="Arial" font-size="24px" font-style="normal" font-weight="normal" text-decoration="none" x="1200" y="360">UNREGISTERED</text><text fill="#eeeeee" stroke="none" font-family="Arial" font-size="24px" font-style="normal" font-weight="normal" text-decoration="none" x="1200" y="390">UNREGISTERED</text><text fill="#eeeeee" stroke="none" font-family="Arial" font-size="24px" font-style="normal" font-weight="normal" text-decoration="none" x="1200" y="420">UNREGISTERED</text><text fill="#eeeeee" stroke="none" font-family="Arial" font-size="24px" font-style="normal" font-weight="normal" text-decoration="none" x="1200" y="450">UNREGISTERED</text><g transform="translate(-30,-46) scale(1,1)"><rect fill="#ffffff" stroke="none" x="40" y="240" width="21" height="272"/></g><g transform="translate(-30,-46) scale(1,1)"><path fill="none" stroke="#000000" d="M 40 240 L 61 240 L 61 512 L 40 512 L 40 240 Z Z" stroke-miterlimit="10" stroke-width="2"/></g><g transform="translate(-30,-46) scale(1,1)"><path fill="none" stroke="#000000" d="M 1240 240 L 40 240 L 40 512 L 1240 512" stroke-miterlimit="10" stroke-width="2"/></g><g transform="translate(-30,-46) scale(1,1)"><g><path fill="none" stroke="none"/><g transform="translate(44,376) rotate(-90,0,0)"><text fill="#000000" stroke="none" font-family="Arial" font-size="13px" font-style="normal" font-weight="normal" text-decoration="none" x="-31.51611328125" y="10">Жарпицца</text></g></g></g><g transform="translate(-30,-46) scale(1,1)"><rect fill="#ffffff" stroke="none" x="40" y="56" width="21" height="183"/></g><g transform="translate(-30,-46) scale(1,1)"><path fill="none" stroke="#000000" d="M 40 56 L 61 56 L 61 239 L 40 239 L 40 56 Z Z" stroke-miterlimit="10" stroke-width="2"/></g><g transform="translate(-30,-46) scale(1,1)"><path fill="none" stroke="#000000" d="M 1240 56 L 40 56 L 40 239 L 1240 239" stroke-miterlimit="10" stroke-width="2"/></g><g transform="translate(-30,-46) scale(1,1)"><g><path fill="none" stroke="none"/><g transform="translate(44,147.5) rotate(-90,0,0)"><text fill="#000000" stroke="none" font-family="Arial" font-size="13px" font-style="normal" font-weight="normal" text-decoration="none" x="-21.3916015625" y="10">Клиент</text></g></g></g><g transform="translate(-30,-46) scale(1,1)"><path fill="#C0C0C0" stroke="none" d="M 111 152.5 C 111 147.2532944 115.2532944 143 120.5 143 C 125.7467056 143 130 147.2532944 130 152.5 C 130 157.7467056 125.7467056 162 120.5 162 C 115.2532944 162 111 157.7467056 111 152.5 Z" opacity="0.2"/></g><g transform="translate(-30,-46) scale(1,1)"><path fill="#000000" stroke="none" d="M 104 145.5 C 104 140.2532944 108.2532944 136 113.5 136 C 118.7467056 136 123 140.2532944 123 145.5 C 123 150.7467056 118.7467056 155 113.5 155 C 108.2532944 155 104 150.7467056 104 145.5 Z"/></g><g transform="translate(-30,-46) scale(1,1)"><path fill="#C0C0C0" stroke="none" d="M 225 127 L 299.5537109375 127 Q 309.5537109375 127 309.5537109375 137 L 309.5537109375 170 Q 309.5537109375 180 299.5537109375 180 L 225 180 Q 215 180 215 170 L 215 137 Q 215 127 225 127 Z" opacity="0.2"/></g><g transform="translate(-30,-46) scale(1,1)"><path fill="#ffffff" stroke="none" d="M 218 120 L 292.5537109375 120 Q 302.5537109375 120 302.5537109375 130 L 302.5537109375 163 Q 302.5537109375 173 292.5537109375 173 L 218 173 Q 208 173 208 163 L 208 130 Q 208 120 218 120 Z"/></g><g transform="translate(-30,-46) scale(1,1)"><path fill="none" stroke="#000000" d="M 218 120 L 292.5537109375 120 Q 302.5537109375 120 302.5537109375 130 L 302.5537109375 163 Q 302.5537109375 173 292.5537109375 173 L 218 173 Q 208 173 208 163 L 208 130 Q 208 120 218 120 Z" stroke-miterlimit="10"/></g><g transform="translate(-30,-46) scale(1,1)"><g><path fill="none" stroke="none"/><text fill="#000000" stroke="none" font-family="Arial" font-size="13px" font-style="normal" font-weight="bold" text-decoration="none" x="233.075927734375" y="138">Выбор</text><text fill="#000000" stroke="none" font-family="Arial" font-size="13px" font-style="normal" font-weight="bold" text-decoration="none" x="233.812255859375" y="149.5">пиццы</text></g></g><g transform="translate(-30,-46) scale(1,1)"><path fill="#C0C0C0" stroke="none" d="M 377 127 L 445 127 Q 455 127 455 137 L 455 170 Q 455 180 445 180 L 377 180 Q 367 180 367 170 L 367 137 Q 367 127 377 127 Z" opacity="0.2"/></g><g transform="translate(-30,-46) scale(1,1)"><path fill="#ffffff" stroke="none" d="M 370 120 L 438 120 Q 448 120 448 130 L 448 163 Q 448 173 438 173 L 370 173 Q 360 173 360 163 L 360 130 Q 360 120 370 120 Z"/></g><g transform="translate(-30,-46) scale(1,1)"><path fill="none" stroke="#000000" d="M 370 120 L 438 120 Q 448 120 448 130 L 448 163 Q 448 173 438 173 L 370 173 Q 360 173 360 163 L 360 130 Q 360 120 370 120 Z" stroke-miterlimit="10"/></g><g transform="translate(-30,-46) scale(1,1)"><g><path fill="none" stroke="none"/><text fill="#000000" stroke="none" font-family="Arial" font-size="13px" font-style="normal" font-weight="bold" text-decoration="none" x="372.1728515625" y="138">Просмотр</text><text fill="#000000" stroke="none" font-family="Arial" font-size="13px" font-style="normal" font-weight="bold" text-decoration="none" x="375.318115234375" y="149.5">карточки</text></g></g><g transform="translate(-30,-46) scale(1,1)"><path fill="#C0C0C0" stroke="none" d="M 513 127 L 581 127 Q 591 127 591 137 L 591 170 Q 591 180 581 180 L 513 180 Q 503 180 503 170 L 503 137 Q 503 127 513 127 Z" opacity="0.2"/></g><g transform="translate(-30,-46) scale(1,1)"><path fill="#ffffff" stroke="none" d="M 506 120 L 574 120 Q 584 120 584 130 L 584 163 Q 584 173 574 173 L 506 173 Q 496 173 496 163 L 496 130 Q 496 120 506 120 Z"/></g><g transform="translate(-30,-46) scale(1,1)"><path fill="none" stroke="#000000" d="M 506 120 L 574 120 Q 584 120 584 130 L 584 163 Q 584 173 574 173 L 506 173 Q 496 173 496 163 L 496 130 Q 496 120 506 120 Z" stroke-miterlimit="10"/></g><g transform="translate(-30,-46) scale(1,1)"><g><path fill="none" stroke="none"/><text fill="#000000" stroke="none" font-family="Arial" font-size="13px" font-style="normal" font-weight="bold" text-decoration="none" x="500.584228515625" y="138">Добавление</text><text fill="#000000" stroke="none" font-family="Arial" font-size="13px" font-style="normal" font-weight="bold" text-decoration="none" x="508.40771484375" y="149.5">в корзину</text></g></g><g transform="translate(-30,-46) scale(1,1)"><path fill="#C0C0C0" stroke="none" d="M 641 127 L 715.033203125 127 Q 725.033203125 127 725.033203125 137 L 725.033203125 170 Q 725.033203125 180 715.033203125 180 L 641 180 Q 631 180 631 170 L 631 137 Q 631 127 641 127 Z" opacity="0.2"/></g><g transform="translate(-30,-46) scale(1,1)"><path fill="#ffffff" stroke="none" d="M 634 120 L 708.033203125 120 Q 718.033203125 120 718.033203125 130 L 718.033203125 163 Q 718.033203125 173 708.033203125 173 L 634 173 Q 624 173 624 163 L 624 130 Q 624 120 634 120 Z"/></g><g transform="translate(-30,-46) scale(1,1)"><path fill="none" stroke="#000000" d="M 634 120 L 708.033203125 120 Q 718.033203125 120 718.033203125 130 L 718.033203125 163 Q 718.033203125 173 708.033203125 173 L 634 173 Q 624 173 624 163 L 624 130 Q 624 120 634 120 Z" stroke-miterlimit="10"/></g><g transform="translate(-30,-46) scale(1,1)"><g><path fill="none" stroke="none"/><text fill="#000000" stroke="none" font-family="Arial" font-size="13px" font-style="normal" font-weight="bold" text-decoration="none" x="628.5" y="138">Оформление</text><text fill="#000000" stroke="none" font-family="Arial" font-size="13px" font-style="normal" font-weight="bold" text-decoration="none" x="650.548583984375" y="149.5">заказа</text></g></g><g transform="translate(-30,-46) scale(1,1)"><path fill="none" stroke="#000000" d="M 124 145 L 207 146" stroke-miterlimit="10"/></g><g transform="translate(-30,-46) scale(1,1)"><path fill="none" stroke="#000000" d="M 196.78734926290502 150.08677928473185 L 207 146 L 196.88877606446374 141.66835475535694" stroke-miterlimit="10"/></g><g transform="translate(-30,-46) scale(1,1)"><path fill="none" stroke="#000000" d="M 304 146 L 359 146" stroke-miterlimit="10"/></g><g transform="translate(-30,-46) scale(1,1)"><path fill="none" stroke="#000000" d="M 348.83732514237585 150.209517756016 L 359 146 L 348.83732514237585 141.790482243984" stroke-miterlimit="10"/></g><g transform="translate(-30,-46) scale(1,1)"><path fill="none" stroke="#000000" d="M 449 146 L 495 146" stroke-miterlimit="10"/></g><g transform="translate(-30,-46) scale(1,1)"><path fill="none" stroke="#000000" d="M 484.83732514237585 150.209517756016 L 495 146 L 484.83732514237585 141.790482243984" stroke-miterlimit="10"/></g><g transform="translate(-30,-46) scale(1,1)"><path fill="none" stroke="#000000" d="M 585 146 L 623 146" stroke-miterlimit="10"/></g><g transform="translate(-30,-46) scale(1,1)"><path fill="none" stroke="#000000" d="M 612.8373251423759 150.209517756016 L 623 146 L 612.8373251423758 141.790482243984" stroke-miterlimit="10"/></g><g transform="translate(-30,-46) scale(1,1)"><path fill="#C0C0C0" stroke="none" d="M 137 295 L 205 295 Q 215 295 215 305 L 215 338 Q 215 348 205 348 L 137 348 Q 127 348 127 338 L 127 305 Q 127 295 137 295 Z" opacity="0.2"/></g><g transform="translate(-30,-46) scale(1,1)"><path fill="#ffffff" stroke="none" d="M 130 288 L 198 288 Q 208 288 208 298 L 208 331 Q 208 341 198 341 L 130 341 Q 120 341 120 331 L 120 298 Q 120 288 130 288 Z"/></g><g transform="translate(-30,-46) scale(1,1)"><path fill="none" stroke="#000000" d="M 130 288 L 198 288 Q 208 288 208 298 L 208 331 Q 208 341 198 341 L 130 341 Q 120 341 120 331 L 120 298 Q 120 288 130 288 Z" stroke-miterlimit="10"/></g><g transform="translate(-30,-46) scale(1,1)"><g><path fill="none" stroke="none"/><text fill="#000000" stroke="none" font-family="Arial" font-size="13px" font-style="normal" font-weight="bold" text-decoration="none" x="133.0234375" y="306">Проверка</text><text fill="#000000" stroke="none" font-family="Arial" font-size="13px" font-style="normal" font-weight="bold" text-decoration="none" x="143.531982421875" y="317.5">заказа</text></g></g><g transform="translate(-30,-46) scale(1,1)"><path fill="#C0C0C0" stroke="none" d="M 313 303 L 391.01318359375 303 Q 401.01318359375 303 401.01318359375 313 L 401.01318359375 333 Q 401.01318359375 343 391.01318359375 343 L 313 343 Q 303 343 303 333 L 303 313 Q 303 303 313 303 Z" opacity="0.2"/></g><g transform="translate(-30,-46) scale(1,1)"><path fill="#ffffff" stroke="none" d="M 306 296 L 384.01318359375 296 Q 394.01318359375 296 394.01318359375 306 L 394.01318359375 326 Q 394.01318359375 336 384.01318359375 336 L 306 336 Q 296 336 296 326 L 296 306 Q 296 296 306 296 Z"/></g><g transform="translate(-30,-46) scale(1,1)"><path fill="none" stroke="#000000" d="M 306 296 L 384.01318359375 296 Q 394.01318359375 296 394.01318359375 306 L 394.01318359375 326 Q 394.01318359375 336 384.01318359375 336 L 306 336 Q 296 336 296 326 L 296 306 Q 296 296 306 296 Z" stroke-miterlimit="10"/></g><g transform="translate(-30,-46) scale(1,1)"><g><path fill="none" stroke="none"/><text fill="#000000" stroke="none" font-family="Arial" font-size="13px" font-style="normal" font-weight="bold" text-decoration="none" x="300.5" y="314">Изготовление</text></g></g><g transform="translate(-30,-46) scale(1,1)"><path fill="none" stroke="#000000" d="M 671 173 L 671 208 L 164 208 L 164 288" stroke-miterlimit="10"/></g><g transform="translate(-30,-46) scale(1,1)"><path fill="none" stroke="#000000" d="M 159.790482243984 277.83732514237585 L 164 288 L 168.209517756016 277.83732514237585" stroke-miterlimit="10"/></g><g transform="translate(-30,-46) scale(1,1)"><path fill="none" stroke="#000000" d="M 209 314 L 295 315" stroke-miterlimit="10"/></g><g transform="translate(-30,-46) scale(1,1)"><path fill="none" stroke="#000000" d="M 284.7890675391646 319.0910705542996 L 295 315 L 284.8869566834476 310.6726041459633" stroke-miterlimit="10"/></g><g transform="translate(-30,-46) scale(1,1)"><path fill="#C0C0C0" stroke="none" d="M 185 407 L 245 407 Q 255 407 255 417 L 255 437 Q 255 447 245 447 L 185 447 Q 175 447 175 437 L 175 417 Q 175 407 185 407 Z" opacity="0.2"/></g><g transform="translate(-30,-46) scale(1,1)"><path fill="#ffffff" stroke="none" d="M 178 400 L 238 400 Q 248 400 248 410 L 248 430 Q 248 440 238 440 L 178 440 Q 168 440 168 430 L 168 410 Q 168 400 178 400 Z"/></g><g transform="translate(-30,-46) scale(1,1)"><path fill="none" stroke="#000000" d="M 178 400 L 238 400 Q 248 400 248 410 L 248 430 Q 248 440 238 440 L 178 440 Q 168 440 168 430 L 168 410 Q 168 400 178 400 Z" stroke-miterlimit="10"/></g><g transform="translate(-30,-46) scale(1,1)"><g><path fill="none" stroke="none"/><text fill="#000000" stroke="none" font-family="Arial" font-size="13px" font-style="normal" font-weight="bold" text-decoration="none" x="178.1279296875" y="418">Доставка</text></g></g><g transform="translate(-30,-46) scale(1,1)"><path fill="#C0C0C0" stroke="none" d="M 322 367 L 385 367 Q 388 367 388 370 L 388 369 Q 388 372 385 372 L 322 372 Q 319 372 319 369 L 319 370 Q 319 367 322 367 Z" opacity="0.2"/></g><g transform="translate(-30,-46) scale(1,1)"><path fill="#000000" stroke="none" d="M 315 360 L 378 360 Q 381 360 381 363 L 381 363 Q 381 366 378 366 L 315 366 Q 312 366 312 363 L 312 363 Q 312 360 315 360 Z"/></g><g transform="translate(-30,-46) scale(1,1)"><path fill="none" stroke="#000000" d="M 345 337 L 346 359" stroke-miterlimit="10"/></g><g transform="translate(-30,-46) scale(1,1)"><path fill="none" stroke="#000000" d="M 341.33336089832187 349.0389518877435 L 346 359 L 349.74371251375516 348.6566631779511" stroke-miterlimit="10"/></g><g transform="translate(-30,-46) scale(1,1)"><path fill="none" stroke="#000000" d="M 368 365 L 368 400 L 752 400 L 752 144 L 816 144" stroke-miterlimit="10"/></g><g transform="translate(-30,-46) scale(1,1)"><path fill="none" stroke="#000000" d="M 805.8373251423759 148.209517756016 L 816 144 L 805.8373251423758 139.790482243984" stroke-miterlimit="10"/></g><g transform="translate(-30,-46) scale(1,1)"><path fill="none" stroke="#000000" d="M 336 366 L 249 403" stroke-miterlimit="10"/></g><g transform="translate(-30,-46) scale(1,1)"><path fill="none" stroke="#000000" d="M 256.70459994488834 395.1489402187204 L 249 403 L 259.9995124782038 402.89643725651626" stroke-miterlimit="10"/></g><g transform="translate(-30,-46) scale(1,1)"><path fill="#C0C0C0" stroke="none" d="M 330 479 L 393 479 Q 396 479 396 482 L 396 481 Q 396 484 393 484 L 330 484 Q 327 484 327 481 L 327 482 Q 327 479 330 479 Z" opacity="0.2"/></g><g transform="translate(-30,-46) scale(1,1)"><path fill="#000000" stroke="none" d="M 323 472 L 386 472 Q 389 472 389 475 L 389 475 Q 389 478 386 478 L 323 478 Q 320 478 320 475 L 320 475 Q 320 472 323 472 Z"/></g><g transform="translate(-30,-46) scale(1,1)"><path fill="none" stroke="#000000" d="M 847 168 L 847 424 L 376 424 L 376 472" stroke-miterlimit="10"/></g><g transform="translate(-30,-46) scale(1,1)"><path fill="none" stroke="#000000" d="M 371.790482243984 461.83732514237585 L 376 472 L 380.209517756016 461.83732514237585" stroke-miterlimit="10"/></g><g transform="translate(-30,-46) scale(1,1)"><path fill="none" stroke="#000000" d="M 249 435 L 346 471" stroke-miterlimit="10"/></g><g transform="translate(-30,-46) scale(1,1)"><path fill="none" stroke="#000000" d="M 335.0076602611054 471.4104473957998 L 346 471 L 337.9370118926309 463.51747216641166" stroke-miterlimit="10"/></g><g transform="translate(-30,-46) scale(1,1)"><path fill="#C0C0C0" stroke="none" d="M 1101.5478515625 127 L 1153.6181640625 127 Q 1163.6181640625 127 1163.6181640625 137 L 1163.6181640625 170 Q 1163.6181640625 180 1153.6181640625 180 L 1101.5478515625 180 Q 1091.5478515625 180 1091.5478515625 170 L 1091.5478515625 137 Q 1091.5478515625 127 1101.5478515625 127 Z" opacity="0.2"/></g><g transform="translate(-30,-46) scale(1,1)"><path fill="#ffffff" stroke="none" d="M 1094.5478515625 120 L 1146.6181640625 120 Q 1156.6181640625 120 1156.6181640625 130 L 1156.6181640625 163 Q 1156.6181640625 173 1146.6181640625 173 L 1094.5478515625 173 Q 1084.5478515625 173 1084.5478515625 163 L 1084.5478515625 130 Q 1084.5478515625 120 1094.5478515625 120 Z"/></g><g transform="translate(-30,-46) scale(1,1)"><path fill="none" stroke="#000000" d="M 1094.5478515625 120 L 1146.6181640625 120 Q 1156.6181640625 120 1156.6181640625 130 L 1156.6181640625 163 Q 1156.6181640625 173 1146.6181640625 173 L 1094.5478515625 173 Q 1084.5478515625 173 1084.5478515625 163 L 1084.5478515625 130 Q 1084.5478515625 120 1094.5478515625 120 Z" stroke-miterlimit="10"/></g><g transform="translate(-30,-46) scale(1,1)"><g><path fill="none" stroke="none"/><text fill="#000000" stroke="none" font-family="Arial" font-size="13px" font-style="normal" font-weight="bold" text-decoration="none" x="1089.0478515625" y="138">Поедание</text><text fill="#000000" stroke="none" font-family="Arial" font-size="13px" font-style="normal" font-weight="bold" text-decoration="none" x="1100.114990234375" y="149.5">заказа</text></g></g><g transform="translate(-30,-46) scale(1,1)"><path fill="none" stroke="#000000" d="M 352 477 L 352 496 L 999 496 L 999 173" stroke-miterlimit="10"/></g><g transform="translate(-30,-46) scale(1,1)"><path fill="none" stroke="#000000" d="M 1003.209517756016 183.16267485762415 L 999 173 L 994.790482243984 183.16267485762415" stroke-miterlimit="10"/></g><g transform="translate(-30,-46) scale(1,1)"><path fill="#C0C0C0" stroke="none" d="M 977 127 L 1036.12890625 127 Q 1046.12890625 127 1046.12890625 137 L 1046.12890625 170 Q 1046.12890625 180 1036.12890625 180 L 977 180 Q 967 180 967 170 L 967 137 Q 967 127 977 127 Z" opacity="0.2"/></g><g transform="translate(-30,-46) scale(1,1)"><path fill="#ffffff" stroke="none" d="M 970 120 L 1029.12890625 120 Q 1039.12890625 120 1039.12890625 130 L 1039.12890625 163 Q 1039.12890625 173 1029.12890625 173 L 970 173 Q 960 173 960 163 L 960 130 Q 960 120 970 120 Z"/></g><g transform="translate(-30,-46) scale(1,1)"><path fill="none" stroke="#000000" d="M 970 120 L 1029.12890625 120 Q 1039.12890625 120 1039.12890625 130 L 1039.12890625 163 Q 1039.12890625 173 1029.12890625 173 L 970 173 Q 960 173 960 163 L 960 130 Q 960 120 970 120 Z" stroke-miterlimit="10"/></g><g transform="translate(-30,-46) scale(1,1)"><g><path fill="none" stroke="none"/><text fill="#000000" stroke="none" font-family="Arial" font-size="13px" font-style="normal" font-weight="bold" text-decoration="none" x="964.5" y="138">Получение</text><text fill="#000000" stroke="none" font-family="Arial" font-size="13px" font-style="normal" font-weight="bold" text-decoration="none" x="979.096435546875" y="149.5">заказа</text></g></g><g transform="translate(-30,-46) scale(1,1)"><path fill="none" stroke="#000000" d="M 1040 146 L 1084 146" stroke-miterlimit="10"/></g><g transform="translate(-30,-46) scale(1,1)"><path fill="none" stroke="#000000" d="M 1073.837325142376 150.209517756016 L 1084 146 L 1073.837325142376 141.790482243984" stroke-miterlimit="10"/></g><g transform="translate(-30,-46) scale(1,1)"><path fill="none" stroke="#000000" d="M 1158 143 L 1191 141" stroke-miterlimit="10"/></g><g transform="translate(-30,-46) scale(1,1)"><path fill="none" stroke="#000000" d="M 1181.1105931465268 145.81659963942153 L 1191 141 L 1180.6012830847008 137.41298361929196" stroke-miterlimit="10"/></g><g transform="translate(-30,-46) scale(1,1)"><path fill="#C0C0C0" stroke="none" d="M 833 135 L 876.27880859375 135 Q 886.27880859375 135 886.27880859375 145 L 886.27880859375 165 Q 886.27880859375 175 876.27880859375 175 L 833 175 Q 823 175 823 165 L 823 145 Q 823 135 833 135 Z" opacity="0.2"/></g><g transform="translate(-30,-46) scale(1,1)"><path fill="#ffffff" stroke="none" d="M 826 128 L 869.27880859375 128 Q 879.27880859375 128 879.27880859375 138 L 879.27880859375 158 Q 879.27880859375 168 869.27880859375 168 L 826 168 Q 816 168 816 158 L 816 138 Q 816 128 826 128 Z"/></g><g transform="translate(-30,-46) scale(1,1)"><path fill="none" stroke="#000000" d="M 826 128 L 869.27880859375 128 Q 879.27880859375 128 879.27880859375 138 L 879.27880859375 158 Q 879.27880859375 168 869.27880859375 168 L 826 168 Q 816 168 816 158 L 816 138 Q 816 128 826 128 Z" stroke-miterlimit="10"/></g><g transform="translate(-30,-46) scale(1,1)"><g><path fill="none" stroke="none"/><text fill="#000000" stroke="none" font-family="Arial" font-size="13px" font-style="normal" font-weight="bold" text-decoration="none" x="820.5" y="146">Опалата</text></g></g><g transform="translate(-30,-46) scale(1,1)"><path fill="#C0C0C0" stroke="none" d="M 1199 147.5 C 1199 140.59644 1204.59644 135 1211.5 135 C 1218.40356 135 1224 140.59644 1224 147.5 C 1224 154.40356 1218.40356 160 1211.5 160 C 1204.59644 160 1199 154.40356 1199 147.5 Z" opacity="0.2"/></g><g transform="translate(-30,-46) scale(1,1)"><path fill="none" stroke="#000000" d="M 1192 140.5 C 1192 133.59644 1197.59644 128 1204.5 128 C 1211.40356 128 1217 133.59644 1217 140.5 C 1217 147.40356 1211.40356 153 1204.5 153 C 1197.59644 153 1192 147.40356 1192 140.5 Z" stroke-miterlimit="10"/></g><g transform="translate(-30,-46) scale(1,1)"><path fill="#000000" stroke="none" d="M 1197 140.5 C 1197 136.357864 1200.357864 133 1204.5 133 C 1208.642136 133 1212 136.357864 1212 140.5 C 1212 144.642136 1208.642136 148 1204.5 148 C 1200.357864 148 1197 144.642136 1197 140.5 Z"/></g></g></svg>